<svg width="130" height="130" viewBox="0 0 130 130" fill="none" xmlns="http://www.w3.org/2000/svg">
<path d="M105.625 16.25H24.375C22.2201 16.25 20.1535 17.106 18.6298 18.6298C17.106 20.1535 16.25 22.2201 16.25 24.375V105.625C16.25 107.78 17.106 109.847 18.6298 111.37C20.1535 112.894 22.2201 113.75 24.375 113.75H105.625C107.78 113.75 109.847 112.894 111.37 111.37C112.894 109.847 113.75 107.78 113.75 105.625V24.375C113.75 22.2201 112.894 20.1535 111.37 18.6298C109.847 17.106 107.78 16.25 105.625 16.25ZM58.7539 97.7488C54.2271 100.834 48.7116 102.119 43.2872 101.352C37.8628 100.585 32.9199 97.8212 29.4262 93.6014C25.9324 89.3816 24.1394 84.0098 24.3979 78.5375C24.6565 73.0652 26.9481 67.8864 30.8242 64.0148L43.7074 51.1316C47.8346 47.012 53.4278 44.6982 59.2592 44.6982C65.0906 44.6982 70.6837 47.012 74.8109 51.1316C77.0409 53.3483 78.7646 56.0213 79.8637 58.9672C80.0504 59.4673 80.1368 59.9994 80.1179 60.5329C80.099 61.0664 79.9752 61.591 79.7536 62.0767C79.532 62.5624 79.2168 62.9997 78.8262 63.3636C78.4356 63.7275 77.9771 64.0109 77.477 64.1977C76.9768 64.3844 76.4448 64.4708 75.9112 64.4519C75.3777 64.433 74.8531 64.3092 74.3674 64.0876C73.8817 63.8659 73.4444 63.5508 73.0805 63.1602C72.7166 62.7696 72.4332 62.3111 72.2465 61.8109C71.4301 59.6384 70.0819 57.7053 68.3253 56.1885C66.5687 54.6717 64.4597 53.6196 62.1914 53.1286C59.9231 52.6376 57.5678 52.7232 55.3412 53.3777C53.1145 54.0322 51.0875 55.2346 49.4457 56.875L36.5625 69.7582C34.1204 72.2004 32.677 75.4656 32.5146 78.9155C32.3521 82.3654 33.4823 85.7518 35.6841 88.4127C37.8859 91.0735 41.0011 92.8174 44.4204 93.3034C47.8397 93.7894 51.3174 92.9826 54.1734 91.0406C54.6127 90.7121 55.114 90.476 55.6471 90.3464C56.1801 90.2169 56.7338 90.1967 57.2749 90.2869C57.816 90.3772 58.3332 90.5761 58.7953 90.8717C59.2574 91.1673 59.6549 91.5533 59.9637 92.0067C60.2726 92.46 60.4864 92.9712 60.5924 93.5094C60.6983 94.0476 60.6942 94.6017 60.5802 95.1383C60.4662 95.6749 60.2447 96.1828 59.9291 96.6315C59.6134 97.0801 59.2102 97.4602 58.7438 97.7488H58.7539ZM99.1809 65.9852L86.2977 78.8684C84.2611 80.9178 81.838 82.5427 79.1689 83.6488C76.4998 84.755 73.6377 85.3205 70.7484 85.3125C66.273 85.3067 61.9056 83.9368 58.2284 81.3856C54.5513 78.8344 51.7391 75.223 50.1668 71.0328C49.7897 70.0227 49.8293 68.9042 50.2769 67.9233C50.7245 66.9424 51.5434 66.1794 52.5535 65.8023C53.5636 65.4252 54.6822 65.4648 55.6631 65.9124C56.644 66.36 57.4069 67.179 57.784 68.1891C58.7753 70.8241 60.544 73.0958 62.8556 74.7028C65.1673 76.3098 67.9128 77.1763 70.7281 77.1875C72.5508 77.1928 74.3565 76.8364 76.0406 76.1391C77.7246 75.4417 79.2536 74.4173 80.5391 73.125L93.4375 60.2418C95.8796 57.7996 97.323 54.5344 97.4854 51.0845C97.6479 47.6346 96.5177 44.2482 94.3159 41.5873C92.1141 38.9265 88.9989 37.1826 85.5796 36.6966C82.1603 36.2106 78.6826 37.0174 75.8266 38.9594C75.3873 39.2879 74.886 39.524 74.3529 39.6536C73.8199 39.7831 73.2662 39.8033 72.7251 39.7131C72.184 39.6228 71.6668 39.4239 71.2047 39.1283C70.7426 38.8327 70.3451 38.4467 70.0363 37.9933C69.7274 37.54 69.5136 37.0288 69.4076 36.4906C69.3017 35.9524 69.3058 35.3983 69.4198 34.8617C69.5338 34.3251 69.7553 33.8172 70.0709 33.3685C70.3866 32.9199 70.7898 32.5398 71.2563 32.2512C75.784 29.1811 81.2932 27.9082 86.7087 28.6808C92.1243 29.4534 97.0578 32.2161 100.546 36.4297C104.035 40.6434 105.829 46.0057 105.577 51.4703C105.326 56.935 103.047 62.1098 99.1859 65.9852H99.1809Z" fill="black"/>
</svg>
