<svg width="263" height="214" viewBox="0 0 263 214" fill="none" xmlns="http://www.w3.org/2000/svg">
<path d="M219.167 26.75H43.8332C31.7461 26.75 21.9165 34.7482 21.9165 44.5833V169.417C21.9165 179.252 31.7461 187.25 43.8332 187.25H219.167C231.254 187.25 241.083 179.252 241.083 169.417V44.5833C241.083 34.7482 231.254 26.75 219.167 26.75ZM219.177 80.25C219.163 80.25 219.163 80.25 219.177 80.25H214.082L184.856 44.5833H219.167L219.177 80.25ZM104.499 80.25L75.2726 44.5833H103.72L132.946 80.25H104.499ZM159.29 80.25L130.064 44.5833H158.512L187.738 80.25H159.29ZM43.8332 44.5833H48.9288L78.1547 80.25H43.8332V44.5833ZM43.8332 169.417V98.0833H219.167L219.188 169.417H43.8332Z" fill="black"/>
<path d="M109.583 160.5L169.854 133.75L109.583 107V160.5Z" fill="black"/>
</svg>
