<svg width="75" height="90" viewBox="0 0 75 90" fill="none" xmlns="http://www.w3.org/2000/svg">
<path d="M37.9028 4.14209C33.814 4.14209 24.1516 19.4767 24.1516 32.0198C24.1516 42.4524 28.4023 46.0322 34.2041 48.697C31.938 45.9536 30.3911 41.0066 30.3911 35.3049C30.3911 26.6509 34.9749 19.6274 38.1914 19.6274C41.2869 19.6274 45.9917 26.6507 45.9917 35.3049C45.9917 40.6469 44.6133 45.2951 42.5811 48.1259C47.8688 44.959 51.6541 41.847 51.6541 32.0201C51.6541 19.4771 41.871 4.14209 37.9028 4.14209ZM38.8872 35.0631L36.1772 35.5352C37.0216 42.455 37.1536 47.6701 36.7998 52.7398C33.144 52.5693 29.5229 51.69 26.0054 50.147V66.9289C25.5227 71.4408 22.7191 72.2948 22.7691 76.3279C22.8116 79.7639 24.9661 80.8987 26.0055 79.4259V85.8032H50.13V70.2742C51.392 72.1884 54.11 70.8121 54.1627 66.5283C54.226 61.41 50.5597 60.4454 50.13 54.4321V50.147C46.6267 51.708 43.0739 52.5556 39.5372 52.7345C39.8795 47.5047 39.7397 42.0484 38.8872 35.0632V35.0631Z" fill="#FFFCFC"/>
</svg>
