<svg width="36" height="38" viewBox="0 0 36 38" fill="none" xmlns="http://www.w3.org/2000/svg">
<path d="M18.1932 1.74878C16.2306 1.74878 11.5926 8.2234 11.5926 13.5194C11.5926 17.9242 13.633 19.4357 16.4178 20.5609C15.3301 19.4025 14.5876 17.3138 14.5876 14.9064C14.5876 11.2525 16.7878 8.28701 18.3317 8.28701C19.8176 8.28701 22.0759 11.2524 22.0759 14.9064C22.0759 17.1619 21.4142 19.1245 20.4388 20.3197C22.9769 18.9826 24.7938 17.6686 24.7938 13.5195C24.7938 8.22355 20.0979 1.74878 18.1932 1.74878ZM18.6657 14.8043L17.3649 15.0037C17.7702 17.9254 17.8336 20.1273 17.6638 22.2678C15.909 22.1958 14.1709 21.8246 12.4824 21.1731V28.2588C12.2508 30.1638 10.9051 30.5244 10.929 32.2272C10.9494 33.678 11.9836 34.1571 12.4825 33.5353V36.2279H24.0623V29.6712C24.668 30.4795 25.9727 29.8983 25.998 28.0896C26.0284 25.9286 24.2685 25.5213 24.0623 22.9823V21.1731C22.3807 21.8322 20.6753 22.19 18.9777 22.2656C19.142 20.0574 19.0749 17.7537 18.6657 14.8044V14.8043Z" fill="black"/>
</svg>
