<svg width="75" height="94" viewBox="0 0 75 94" fill="none" xmlns="http://www.w3.org/2000/svg">
<path d="M37.9028 4.32593C33.814 4.32593 24.1516 20.3421 24.1516 33.4426C24.1516 44.3389 28.4023 48.0778 34.2041 50.8611C31.938 47.9957 30.3911 42.8288 30.3911 36.8738C30.3911 27.8351 34.9749 20.4994 38.1914 20.4994C41.2869 20.4994 45.9917 27.8349 45.9917 36.8738C45.9917 42.4532 44.6133 47.308 42.5811 50.2646C47.8688 46.957 51.6541 43.7066 51.6541 33.443C51.6541 20.3425 41.871 4.32593 37.9028 4.32593ZM38.8872 36.6212L36.1772 37.1143C37.0216 44.3417 37.1536 49.7885 36.7998 55.0835C33.144 54.9055 29.5229 53.9871 26.0054 52.3755V69.9032C25.5227 74.6157 22.7191 75.5076 22.7691 79.72C22.8116 83.3087 24.9661 84.494 26.0055 82.9557V89.6164H50.13V73.3972C51.392 75.3965 54.11 73.959 54.1627 69.4848C54.226 64.1391 50.5597 63.1316 50.13 56.851V52.3755C46.6267 54.0059 43.0739 54.8911 39.5372 55.078C39.8795 49.6158 39.7397 43.917 38.8872 36.6214V36.6212Z" fill="black"/>
</svg>
