<svg width="36" height="38" viewBox="0 0 36 38" fill="none" xmlns="http://www.w3.org/2000/svg">
<path d="M18.1932 1.74884C16.2306 1.74884 11.5926 8.22346 11.5926 13.5194C11.5926 17.9243 13.633 19.4358 16.4178 20.5609C15.3301 19.4026 14.5876 17.3138 14.5876 14.9065C14.5876 11.2526 16.7878 8.28707 18.3317 8.28707C19.8176 8.28707 22.0759 11.2525 22.0759 14.9065C22.0759 17.162 21.4142 19.1246 20.4388 20.3198C22.9769 18.9827 24.7938 17.6687 24.7938 13.5196C24.7938 8.22361 20.0979 1.74884 18.1932 1.74884ZM18.6657 14.8044L17.3649 15.0037C17.7702 17.9254 17.8336 20.1273 17.6638 22.2679C15.909 22.1959 14.1709 21.8246 12.4824 21.1732V28.2588C12.2508 30.1639 10.9051 30.5244 10.929 32.2273C10.9494 33.678 11.9836 34.1572 12.4825 33.5353V36.228H24.0623V29.6713C24.668 30.4795 25.9727 29.8984 25.998 28.0897C26.0284 25.9286 24.2685 25.5213 24.0623 22.9824V21.1732C22.3807 21.8322 20.6753 22.1901 18.9777 22.2657C19.142 20.0575 19.0749 17.7537 18.6657 14.8044V14.8044Z" fill="black"/>
</svg>
