<svg width="75" height="90" viewBox="0 0 75 90" fill="none" xmlns="http://www.w3.org/2000/svg">
<path d="M37.9027 4.14197C33.8139 4.14197 24.1515 19.4766 24.1515 32.0196C24.1515 42.4523 28.4022 46.032 34.204 48.6969C31.9379 45.9535 30.391 41.0065 30.391 35.3048C30.391 26.6508 34.9748 19.6272 38.1913 19.6272C41.2868 19.6272 45.9916 26.6506 45.9916 35.3048C45.9916 40.6468 44.6132 45.295 42.581 48.1258C47.8686 44.9589 51.6539 41.8469 51.6539 32.02C51.6539 19.4769 41.8708 4.14197 37.9027 4.14197ZM38.8871 35.0629L36.1771 35.5351C37.0215 42.4549 37.1534 47.67 36.7997 52.7397C33.1439 52.5692 29.5228 51.6899 26.0052 50.1469V66.9287C25.5226 71.4407 22.719 72.2946 22.769 76.3278C22.8115 79.7638 24.9659 80.8986 26.0054 79.4257V85.8031H50.1299V70.274C51.3919 72.1883 54.1099 70.8119 54.1626 66.5281C54.2259 61.4099 50.5596 60.4452 50.1299 54.4319V50.1469C46.6266 51.7078 43.0738 52.5555 39.537 52.7344C39.8794 47.5046 39.7396 42.0483 38.8871 35.0631V35.0629Z" fill="#FFFCFC"/>
</svg>
