<svg width="75" height="90" viewBox="0 0 75 90" fill="none" xmlns="http://www.w3.org/2000/svg">
<path d="M37.9028 4.14197C33.814 4.14197 24.1516 19.4766 24.1516 32.0196C24.1516 42.4523 28.4023 46.032 34.2041 48.6969C31.938 45.9535 30.3911 41.0065 30.3911 35.3048C30.3911 26.6508 34.9749 19.6272 38.1914 19.6272C41.2869 19.6272 45.9917 26.6506 45.9917 35.3048C45.9917 40.6468 44.6133 45.295 42.5811 48.1258C47.8688 44.9589 51.6541 41.8469 51.6541 32.02C51.6541 19.4769 41.871 4.14197 37.9028 4.14197ZM38.8872 35.0629L36.1772 35.5351C37.0216 42.4549 37.1536 47.67 36.7998 52.7397C33.144 52.5692 29.5229 51.6899 26.0054 50.1469V66.9287C25.5227 71.4407 22.7191 72.2946 22.7691 76.3278C22.8116 79.7638 24.9661 80.8986 26.0055 79.4257V85.8031H50.13V70.274C51.392 72.1883 54.11 70.8119 54.1627 66.5281C54.226 61.4099 50.5597 60.4452 50.13 54.4319V50.1469C46.6267 51.7078 43.0739 52.5555 39.5372 52.7344C39.8795 47.5046 39.7397 42.0483 38.8872 35.0631V35.0629Z" fill="#FFFCFC"/>
</svg>
