<svg width="75" height="94" viewBox="0 0 75 94" fill="none" xmlns="http://www.w3.org/2000/svg">
<path d="M37.9028 4.32605C33.814 4.32605 24.1516 20.3422 24.1516 33.4427C24.1516 44.339 28.4023 48.0779 34.2041 50.8612C31.938 47.9958 30.3911 42.829 30.3911 36.8739C30.3911 27.8352 34.9749 20.4996 38.1914 20.4996C41.2869 20.4996 45.9917 27.835 45.9917 36.8739C45.9917 42.4533 44.6133 47.3081 42.5811 50.2647C47.8688 46.9571 51.6541 43.7067 51.6541 33.4431C51.6541 20.3426 41.871 4.32605 37.9028 4.32605ZM38.8872 36.6213L36.1772 37.1144C37.0216 44.3418 37.1536 49.7886 36.7998 55.0837C33.144 54.9056 29.5229 53.9872 26.0054 52.3757V69.9034C25.5227 74.6158 22.7191 75.5077 22.7691 79.7201C22.8116 83.3088 24.9661 84.4941 26.0055 82.9558V89.6166H50.13V73.3973C51.392 75.3967 54.11 73.9591 54.1627 69.4849C54.226 64.1392 50.5597 63.1317 50.13 56.8511V52.3757C46.6267 54.006 43.0739 54.8913 39.5372 55.0782C39.8795 49.6159 39.7397 43.9171 38.8872 36.6215V36.6213Z" fill="black"/>
</svg>
