<svg width="75" height="90" viewBox="0 0 75 90" fill="none" xmlns="http://www.w3.org/2000/svg">
<path d="M37.9027 4.14209C33.8139 4.14209 24.1515 19.4767 24.1515 32.0198C24.1515 42.4524 28.4022 46.0322 34.204 48.697C31.9379 45.9536 30.391 41.0066 30.391 35.3049C30.391 26.6509 34.9748 19.6274 38.1913 19.6274C41.2868 19.6274 45.9916 26.6507 45.9916 35.3049C45.9916 40.6469 44.6132 45.2951 42.581 48.1259C47.8686 44.959 51.6539 41.847 51.6539 32.0201C51.6539 19.4771 41.8708 4.14209 37.9027 4.14209ZM38.8871 35.0631L36.1771 35.5352C37.0215 42.455 37.1534 47.6701 36.7997 52.7398C33.1439 52.5693 29.5228 51.69 26.0052 50.147V66.9289C25.5226 71.4408 22.719 72.2948 22.769 76.3279C22.8115 79.7639 24.9659 80.8987 26.0054 79.4259V85.8032H50.1299V70.2742C51.3919 72.1884 54.1099 70.8121 54.1626 66.5283C54.2259 61.41 50.5596 60.4454 50.1299 54.4321V50.147C46.6266 51.708 43.0738 52.5556 39.537 52.7345C39.8794 47.5047 39.7396 42.0484 38.8871 35.0632V35.0631Z" fill="#FFFCFC"/>
</svg>
