<svg width="73" height="73" viewBox="0 0 73 73" fill="none" xmlns="http://www.w3.org/2000/svg">
<path d="M18.0061 32.12H21.9V55.48H27.74V35.04H33.58V55.48H39.42V35.04H45.26V55.48H51.1V32.12H54.9923C56.0669 32.12 56.94 31.0454 56.94 30.0775C56.94 29.492 56.6173 28.8321 56.1297 28.5138L56.1326 28.4379L56.1019 28.3839L56.2976 28.3357L37.96 18.8909V16.1286C40.88 17.6748 43.7284 15.0117 48.18 16.6133V10.512C43.7255 8.91183 40.88 11.5734 37.96 10.0273V9.63599C37.96 9.15273 37.0387 8.75999 36.5 8.75999C35.9612 8.75999 35.04 9.15273 35.04 9.63599V18.8909L16.7038 28.3167L17.0995 28.3474L17.52 28.3634V28.3663C16.06 28.6846 16.387 29.4905 16.387 30.076C16.3855 31.0454 16.9316 32.12 18.0061 32.12ZM20.44 56.94L16.06 61.32H56.94L52.56 56.94H20.44ZM52.56 33.58V55.48H53.8521L54.4229 56.2874L58.3153 59.9359L59.6921 61.32H71.54V33.58H52.56ZM61.32 51.1H56.94V46.72H61.32V51.1ZM61.32 42.34H56.94V37.96H61.32V42.34ZM67.16 51.1H64.24V46.72H67.16V51.1ZM67.16 42.34H64.24V37.96H67.16V42.34ZM19.1464 55.48H20.44V33.58H1.45996V61.32H13.3064L14.6817 60.0819L18.5755 56.2859L19.1464 55.48ZM8.75996 51.1H5.83996V46.72H8.75996V51.1ZM8.75996 42.34H5.83996V37.96H8.75996V42.34ZM16.06 51.1H11.68V46.72H16.06V51.1ZM16.06 42.34H11.68V37.96H16.06V42.34Z" fill="black"/>
</svg>
