<svg width="73" height="73" viewBox="0 0 73 73" fill="none" xmlns="http://www.w3.org/2000/svg">
<path d="M18.0061 32.1198H21.9V55.4798H27.74V35.0398H33.58V55.4798H39.42V35.0398H45.26V55.4798H51.1V32.1198H54.9923C56.0669 32.1198 56.94 31.0452 56.94 30.0772C56.94 29.4918 56.6173 28.8318 56.1297 28.5136L56.1326 28.4376L56.1019 28.3836L56.2976 28.3354L37.96 18.8907V16.1284C40.88 17.6745 43.7284 15.0115 48.18 16.6131V10.5118C43.7255 8.91161 40.88 11.5732 37.96 10.027V9.63577C37.96 9.15251 37.0387 8.75977 36.5 8.75977C35.9612 8.75977 35.04 9.15251 35.04 9.63577V18.8907L16.7038 28.3165L17.0995 28.3471L17.52 28.3632V28.3661C16.06 28.6844 16.387 29.4903 16.387 30.0758C16.3855 31.0452 16.9316 32.1198 18.0061 32.1198ZM20.44 56.9398L16.06 61.3198H56.94L52.56 56.9398H20.44ZM52.56 33.5798V55.4798H53.8521L54.4229 56.2871L58.3153 59.9357L59.6921 61.3198H71.54V33.5798H52.56ZM61.32 51.0998H56.94V46.7198H61.32V51.0998ZM61.32 42.3398H56.94V37.9598H61.32V42.3398ZM67.16 51.0998H64.24V46.7198H67.16V51.0998ZM67.16 42.3398H64.24V37.9598H67.16V42.3398ZM19.1464 55.4798H20.44V33.5798H1.45996V61.3198H13.3064L14.6817 60.0817L18.5755 56.2857L19.1464 55.4798ZM8.75996 51.0998H5.83996V46.7198H8.75996V51.0998ZM8.75996 42.3398H5.83996V37.9598H8.75996V42.3398ZM16.06 51.0998H11.68V46.7198H16.06V51.0998ZM16.06 42.3398H11.68V37.9598H16.06V42.3398Z" fill="black"/>
</svg>
