<svg width="34" height="28" viewBox="0 0 34 28" fill="none" xmlns="http://www.w3.org/2000/svg">
<path fill-rule="evenodd" clip-rule="evenodd" d="M2.4878 21.2692C3.14761 21.2692 3.78039 21.5975 4.24695 22.1817C4.7135 22.766 4.97561 23.5584 4.97561 24.3846C4.97561 25.2109 4.7135 26.0033 4.24695 26.5875C3.78039 27.1718 3.14761 27.5 2.4878 27.5C1.828 27.5 1.19522 27.1718 0.728661 26.5875C0.262107 26.0033 0 25.2109 0 24.3846C0 23.5584 0.262107 22.766 0.728661 22.1817C1.19522 21.5975 1.828 21.2692 2.4878 21.2692ZM32.3398 22.3077C33.257 22.3077 34 23.2298 34 24.3846C34 25.5321 33.262 26.4615 32.3398 26.4615H9.12361C8.90555 26.4624 8.6895 26.4092 8.48789 26.3052C8.28628 26.2011 8.10307 26.0482 7.9488 25.8552C7.79453 25.6622 7.67223 25.4329 7.58893 25.1805C7.50563 24.9282 7.46298 24.6577 7.46341 24.3846C7.46341 23.2371 8.20146 22.3077 9.12361 22.3077H32.3398ZM2.4878 10.8846C3.14761 10.8846 3.78039 11.2128 4.24695 11.7971C4.7135 12.3813 4.97561 13.1737 4.97561 14C4.97561 14.8263 4.7135 15.6187 4.24695 16.2029C3.78039 16.7872 3.14761 17.1154 2.4878 17.1154C1.828 17.1154 1.19522 16.7872 0.728661 16.2029C0.262107 15.6187 0 14.8263 0 14C0 13.1737 0.262107 12.3813 0.728661 11.7971C1.19522 11.2128 1.828 10.8846 2.4878 10.8846ZM32.3398 11.9231C33.257 11.9231 34 12.8452 34 14C34 15.1475 33.262 16.0769 32.3398 16.0769H9.12361C8.90555 16.0777 8.6895 16.0246 8.48789 15.9205C8.28628 15.8165 8.10307 15.6636 7.9488 15.4706C7.79453 15.2776 7.67223 15.0483 7.58893 14.7959C7.50563 14.5436 7.46298 14.2731 7.46341 14C7.46341 12.8525 8.20146 11.9231 9.12361 11.9231H32.3398ZM2.4878 0.5C3.14761 0.5 3.78039 0.828227 4.24695 1.41247C4.7135 1.99672 4.97561 2.78913 4.97561 3.61538C4.97561 4.44164 4.7135 5.23405 4.24695 5.81829C3.78039 6.40254 3.14761 6.73077 2.4878 6.73077C1.828 6.73077 1.19522 6.40254 0.728661 5.81829C0.262107 5.23405 0 4.44164 0 3.61538C0 2.78913 0.262107 1.99672 0.728661 1.41247C1.19522 0.828227 1.828 0.5 2.4878 0.5ZM32.3398 1.53846C33.257 1.53846 34 2.46062 34 3.61538C34 4.76288 33.262 5.69231 32.3398 5.69231H9.12361C8.90555 5.69313 8.6895 5.63998 8.48789 5.53592C8.28628 5.43187 8.10307 5.27895 7.9488 5.08595C7.79453 4.89295 7.67223 4.66369 7.58893 4.41132C7.50563 4.15895 7.46298 3.88846 7.46341 3.61538C7.46341 2.46788 8.20146 1.53846 9.12361 1.53846H32.3398Z" fill="black"/>
</svg>
