<svg width="31" height="54" viewBox="0 0 31 54" fill="none" xmlns="http://www.w3.org/2000/svg">
<path d="M14.9326 0.668945C10.8983 0.668945 1.36474 10.5513 1.36474 18.6346C1.36474 25.3578 5.55875 27.6648 11.2832 29.3821C9.0473 27.6141 7.52105 24.4261 7.52105 20.7517C7.52105 15.1746 12.0437 10.6483 15.2173 10.6483C18.2716 10.6483 22.9136 15.1745 22.9136 20.7517C22.9136 24.1943 21.5536 27.1898 19.5485 29.0141C24.7657 26.9732 28.5005 24.9677 28.5005 18.6348C28.5005 10.5515 18.8478 0.668945 14.9326 0.668945ZM15.9039 20.5958L13.23 20.9001C14.0631 25.3595 14.1933 28.7203 13.8443 31.9875C10.2372 31.8776 6.66441 31.311 3.19378 30.3166V41.1315C2.71755 44.0392 -0.0486346 44.5896 0.000650522 47.1887C0.0425646 49.403 2.16833 50.1343 3.19393 49.1852V53.295H26.9968V43.2874C28.2419 44.521 30.9237 43.634 30.9757 40.8734C31.0382 37.575 27.4207 36.9533 26.9968 33.078V30.3166C23.5402 31.3225 20.0347 31.8688 16.5451 31.9841C16.8829 28.6137 16.745 25.0975 15.9039 20.5959V20.5958Z" fill="black"/>
</svg>
