<svg width="65" height="62" viewBox="0 0 65 62" fill="none" xmlns="http://www.w3.org/2000/svg">
<path fill-rule="evenodd" clip-rule="evenodd" d="M32.5 15.5171C35.0014 15.5171 37.4004 14.7399 39.1692 13.3563C40.938 11.9728 41.9317 10.0963 41.9317 8.13969C41.9317 6.18308 40.938 4.3066 39.1692 2.92307C37.4004 1.53953 35.0014 0.762268 32.5 0.762268C29.9986 0.762268 27.5996 1.53953 25.8308 2.92307C24.062 4.3066 23.0683 6.18308 23.0683 8.13969C23.0683 10.0963 24.062 11.9728 25.8308 13.3563C27.5996 14.7399 29.9986 15.5171 32.5 15.5171ZM17.6732 26.1792C18.7567 23.7805 20.7644 21.7036 23.4198 20.2346C26.0752 18.7656 29.2476 17.9768 32.5 17.9768C35.7524 17.9768 38.9248 18.7656 41.5802 20.2346C44.2356 21.7036 46.2433 23.7805 47.3268 26.1792H17.6732ZM3.8345 31.6552C2.75567 31.7309 1.75562 32.1289 1.04222 32.7664C0.328832 33.4039 -0.0430196 34.232 0.0039671 35.0784C0.0509539 35.9249 0.513164 36.7246 1.29452 37.3114C2.07587 37.8981 3.11626 38.2268 4.19942 38.229H9.20156L11.2226 59.7465C11.275 60.2987 11.5922 60.8151 12.1107 61.1921C12.6291 61.5691 13.3105 61.779 14.0184 61.7797H50.9816C51.6904 61.7789 52.3726 61.5684 52.8911 61.1905C53.4097 60.8125 53.7263 60.2951 53.7774 59.7421L55.7984 38.229H60.8006C61.8837 38.2268 62.9241 37.8981 63.7055 37.3114C64.4868 36.7246 64.949 35.9249 64.996 35.0784C65.043 34.232 64.6712 33.4039 63.9578 32.7664C63.2444 32.1289 62.2443 31.7309 61.1655 31.6552L60.8006 31.6684H4.20503L3.8345 31.6552ZM32.5 38.9668C33.0236 38.9672 33.5366 39.0822 33.9811 39.2987C34.4255 39.5152 34.7837 39.8246 35.0151 40.192L36.486 42.5194L39.7758 42.897C40.2943 42.9559 40.7814 43.1271 41.1819 43.3913C41.5824 43.6554 41.8804 44.002 42.0422 44.3917C42.2041 44.7815 42.2232 45.1989 42.0975 45.5967C41.9718 45.9945 41.7063 46.3569 41.331 46.6428L38.9506 48.4564L39.512 51.0166C39.6001 51.4201 39.5422 51.8348 39.3449 52.2139C39.1476 52.593 38.8187 52.9215 38.3955 53.1621C37.9722 53.4028 37.4713 53.5461 36.9494 53.5759C36.4274 53.6057 35.9053 53.5208 35.4418 53.3308L32.5 52.1188L29.5582 53.3264C29.0947 53.5164 28.5726 53.6014 28.0506 53.5715C27.5287 53.5417 27.0278 53.3984 26.6045 53.1577C26.1813 52.9171 25.8524 52.5886 25.6551 52.2095C25.4578 51.8304 25.3999 51.4157 25.488 51.0122L26.0494 48.452L23.6691 46.6384C23.2937 46.3525 23.0282 45.9901 22.9025 45.5923C22.7768 45.1945 22.7959 44.7771 22.9578 44.3873C23.1196 43.9976 23.4176 43.651 23.8181 43.3869C24.2186 43.1227 24.7057 42.9515 25.2242 42.8926L28.514 42.5194L29.9849 40.1876C30.2163 39.8202 30.5745 39.5108 31.0189 39.2943C31.4634 39.0778 31.9764 38.9672 32.5 38.9668Z" fill="black"/>
</svg>
