<svg width="31" height="54" viewBox="0 0 31 54" fill="none" xmlns="http://www.w3.org/2000/svg">
<path d="M14.9326 0.669189C10.8983 0.669189 1.36474 10.5515 1.36474 18.6348C1.36474 25.358 5.55875 27.665 11.2832 29.3824C9.0473 27.6144 7.52105 24.4263 7.52105 20.7519C7.52105 15.1749 12.0437 10.6486 15.2173 10.6486C18.2716 10.6486 22.9136 15.1747 22.9136 20.7519C22.9136 24.1945 21.5536 27.19 19.5485 29.0143C24.7657 26.9734 28.5005 24.9679 28.5005 18.635C28.5005 10.5517 18.8478 0.669189 14.9326 0.669189ZM15.9039 20.596L13.23 20.9003C14.0631 25.3597 14.1933 28.7206 13.8443 31.9877C10.2372 31.8778 6.66441 31.3112 3.19378 30.3168V41.1318C2.71755 44.0395 -0.0486346 44.5898 0.000650522 47.1889C0.0425646 49.4032 2.16833 50.1346 3.19393 49.1854V53.2952H26.9968V43.2876C28.2419 44.5213 30.9237 43.6343 30.9757 40.8736C31.0382 37.5752 27.4207 36.9535 26.9968 33.0783V30.3168C23.5402 31.3228 20.0347 31.869 16.5451 31.9843C16.8829 28.614 16.745 25.0977 15.9039 20.5962V20.596Z" fill="black"/>
</svg>
