<svg width="81" height="65" viewBox="0 0 81 65" fill="none" xmlns="http://www.w3.org/2000/svg">
<path d="M56.4137 34.1336C54.9543 35.1014 53.7053 36.1818 52.6668 37.3747C50.3373 36.4294 47.9096 35.7316 45.3836 35.2815C42.8576 34.8313 40.2755 34.595 37.6372 34.5725C34.606 34.5725 31.7152 34.8763 28.9647 35.4841C26.2141 36.0918 23.632 36.9471 21.2183 38.05C18.8046 39.1529 16.6435 40.4921 14.7349 42.0677C12.8264 43.6432 11.1564 45.3876 9.72505 47.3008C8.29366 49.214 7.22713 51.296 6.52547 53.5468C5.8238 55.7976 5.44491 58.116 5.38877 60.5018H0C0 57.2156 0.60343 54.0532 1.81029 51.0147C3.01715 47.9761 4.75728 45.1963 7.03067 42.6754C9.30405 40.1545 12.0125 37.9487 15.1559 36.058C18.2994 34.1673 21.8638 32.7156 25.8493 31.7027C24.3337 30.8924 22.9865 29.9583 21.8077 28.9004C20.6289 27.8425 19.6185 26.6946 18.7765 25.4567C17.9345 24.2187 17.289 22.9133 16.8399 21.5403C16.3909 20.1673 16.1663 18.7493 16.1663 17.2862C16.1663 14.9004 16.7277 12.6608 17.8503 10.5676C18.973 8.47431 20.5166 6.65115 22.4813 5.09809C24.4459 3.54503 26.7334 2.30708 29.3436 1.38425C31.9537 0.461416 34.7464 0 37.7214 0C40.6965 0 43.4891 0.450162 46.0993 1.35049C48.7095 2.25081 50.9828 3.48876 52.9194 5.06433C54.856 6.6399 56.3997 8.47431 57.5504 10.5676C58.7011 12.6608 59.2765 14.9004 59.2765 17.2862C59.2765 18.7493 59.052 20.1673 58.6029 21.5403C58.1538 22.9133 57.5224 24.23 56.7084 25.4904C55.8945 26.7509 54.8701 27.8988 53.6351 28.9342C52.4002 29.9696 51.039 30.9036 49.5515 31.7364C50.7583 32.0516 51.9231 32.4004 53.0457 32.7831C54.1684 33.1657 55.2911 33.6159 56.4137 34.1336ZM21.5551 17.2862C21.5551 19.0869 21.9761 20.7637 22.8181 22.3168C23.6601 23.8699 24.8108 25.2429 26.2703 26.4358C27.7297 27.6287 29.4418 28.5628 31.4064 29.238C33.3711 29.9133 35.4761 30.2509 37.7214 30.2509C39.9387 30.2509 42.0296 29.9133 43.9943 29.238C45.9589 28.5628 47.671 27.64 49.1305 26.4695C50.5899 25.2991 51.7547 23.9261 52.6247 22.3506C53.4948 20.775 53.9158 19.0869 53.8877 17.2862C53.8877 15.5081 53.4667 13.8312 52.6247 12.2557C51.7827 10.6801 50.632 9.30711 49.1726 8.13669C47.7131 6.96626 45.987 6.03218 43.9943 5.33442C42.0016 4.63667 39.9106 4.29905 37.7214 4.32156C35.4761 4.32156 33.3851 4.65918 31.4485 5.33442C29.512 6.00967 27.7999 6.9325 26.3124 8.10292C24.8248 9.27334 23.6601 10.6576 22.8181 12.2557C21.9761 13.8537 21.5551 15.5306 21.5551 17.2862ZM67.4439 34.5387C69.2963 34.5387 71.0504 34.8201 72.7063 35.3828C74.3623 35.9455 75.7937 36.722 77.0005 37.7124C78.2074 38.7027 79.1757 39.8506 79.9054 41.1561C80.6351 42.4616 81 43.8683 81 45.3764C81 46.8619 80.6492 48.2574 79.9475 49.5629C79.2458 50.8684 78.2775 52.0163 77.0426 53.0066C75.8077 53.997 74.3623 54.7735 72.7063 55.3362C71.0504 55.8989 69.2963 56.1915 67.4439 56.214C64.7214 56.214 62.2375 55.6063 59.9922 54.3909L47.6991 64.2494C47.1658 64.6771 46.5343 64.8909 45.8046 64.8909C45.0748 64.8909 44.4433 64.6771 43.9101 64.2494C43.3768 63.8218 43.1102 63.3153 43.1102 62.7301C43.1102 62.1449 43.3768 61.6385 43.9101 61.2108L56.2032 51.3523C54.6876 49.5516 53.9298 47.5597 53.9298 45.3764C53.9298 43.8908 54.2807 42.4953 54.9823 41.1899C55.684 39.8844 56.6523 38.7365 57.8872 37.7461C59.1221 36.7558 60.5535 35.9792 62.1814 35.4165C63.8093 34.8538 65.5634 34.5612 67.4439 34.5387ZM67.4439 51.8925C68.5665 51.8925 69.619 51.7237 70.6013 51.386C71.5837 51.0484 72.4397 50.587 73.1694 50.0018C73.8992 49.4166 74.4886 48.7188 74.9376 47.9085C75.3867 47.0982 75.6112 46.2542 75.6112 45.3764C75.6112 44.476 75.4007 43.632 74.9797 42.8442C74.5587 42.0564 73.9693 41.3699 73.2115 40.7847C72.4537 40.1995 71.5977 39.7268 70.6435 39.3667C69.6892 39.0066 68.6227 38.8378 67.4439 38.8603C66.3212 38.8603 65.2687 39.0291 64.2864 39.3667C63.3041 39.7043 62.448 40.177 61.7183 40.7847C60.9886 41.3924 60.3992 42.0789 59.9501 42.8442C59.501 43.6095 59.2905 44.4535 59.3186 45.3764C59.3186 46.2767 59.5291 47.1207 59.9501 47.9085C60.3711 48.6963 60.9465 49.3828 61.6762 49.968C62.4059 50.5532 63.276 51.0259 64.2864 51.386C65.2968 51.7462 66.3493 51.915 67.4439 51.8925Z" fill="white"/>
</svg>
